#!OML:ASF H:\MichaelJackson\Top Level 1\Subject 1\Session 1\male.ASF
:FULLY-SPECIFIED
:DEGREES
1362
root -7.26152 17.0673 17.3187 -261.465 -83.1851 -106.322
lowerback 15.6727 2.05904 -0.0306037
upperback 4.62158 2.50638 0.730594
thorax -3.90375 1.1336 0.323727
lowerneck -7.10099 4.63958 7.52624
upperneck 4.18079 5.75516 -4.63155
head 3.02996 2.83851 -2.58042
rclavicle -1.39149e-014 -9.54166e-015
rhumerus -48.3692 0.244072 -61.6541
rradius 79.1858
rwrist 8.12443
rhand -11.9012 -23.2553
rfingers 7.12502
rthumb 14.1522 -52.7533
lclavicle -1.39149e-014 -9.54166e-015
lhumerus -56.4957 -24.6376 106.927
lradius 86.2531
lwrist 14.5709
lhand 17.5027 21.721
lfingers 7.12502
lthumb 42.202 46.243
rfemur -78.7994 -20.0841 31.4592
rtibia 43.3832
rfoot -0.236543 26.7214
rtoes -29.7049
lfemur -7.00419 15.186 -12.4428
ltibia 36.3629
lfoot -17.7756 -6.47119
ltoes 42.799
1363
root -7.30146 17.0285 17.2876 -268.67 -84.1357 -99.3591
lowerback 15.8802 2.09681 -1.08349
upperback 4.72809 2.36235 0.2857
thorax -3.92517 1.06237 0.473121
lowerneck -7.02926 4.79382 7.55236
upperneck 4.04751 5.96715 -4.72056
head 2.99041 2.94106 -2.60437
rclavicle -1.88845e-014 1.03368e-014
rhumerus -48.3729 0.243662 -62.2982
rradius 80.0772
rwrist 9.45659
rhand -12.4993 -23.0898
rfingers 7.12502
rthumb 13.5758 -52.6272
lclavicle -1.88845e-014 1.03368e-014
lhumerus -56.9062 -25.7383 106.807
lradius 86.4528
lwrist 14.8998
lhand 17.4583 21.3159
lfingers 7.12502
lthumb 42.1604 45.852
rfemur -83.9746 -22.5435 39.9776
rtibia 47.663
rfoot -5.6388 23.0213
rtoes -39.172
lfemur -6.9484 15.0783 -13.2081
ltibia 36.7252
lfoot -17.9837 -6.72854
ltoes 42.0907
1364
root -7.33365 16.999 17.2585 -281.62 -84.7521 -86.5615
lowerback 16.0316 2.00633 -1.90291
upperback 4.80651 2.08649 -0.11863
thorax -3.9318 0.925753 0.560371
lowerneck -7.14008 4.9365 7.44532
upperneck 4.11214 6.15378 -4.59643
head 3.03559 3.03507 -2.52886
rclavicle 6.55989e-015 1.35174e-014
rhumerus -48.5495 0.199102 -62.95
rradius 81.1354
rwrist 10.4496
rhand -12.8571 -22.7525
rfingers 7.12502
rthumb 13.2309 -52.3126
lclavicle 6.55989e-015 1.35174e-014
lhumerus -57.0727 -26.7467 106.548
lradius 86.4791
lwrist 15.0878
lhand 17.4677 21.102
lfingers 7.12502
lthumb 42.1691 45.6351
rfemur -88.5325 -23.9165 46.4551
rtibia 52.8079
rfoot -6.2285 16.8029
rtoes -37.5846
lfemur -7.10648 14.9853 -13.8925
ltibia 37.1195
lfoot -18.2361 -6.77961
ltoes 40.4932
1365
root -7.36324 16.9691 17.2314 -299.378 -84.7455 -68.9625
lowerback 16.3145 1.89563 -2.42634
upperback 4.8506 1.82964 -0.426822
thorax -4.03534 0.798918 0.574778
lowerneck -7.21175 4.92159 7.25293
upperneck 4.14017 6.14165 -4.49589
head 3.04432 3.02828 -2.45843
rclavicle 5.56597e-015 -4.13472e-014
rhumerus -48.9697 0.051601 -63.3696
rradius 82.3346
rwrist 10.547
rhand -13.2886 -22.6685
rfingers 7.12502
rthumb 12.815 -52.2552
lclavicle 5.56597e-015 -4.13472e-014
lhumerus -57.1393 -27.9515 106.447
lradius 86.3204
lwrist 15.1594
lhand 17.5409 20.9693
lfingers 7.12502
lthumb 42.2377 45.4792
rfemur -92.7213 -24.7239 51.8724
rtibia 58.383
rfoot -6.96242 9.8413
rtoes -41.5816
lfemur -7.28588 14.8452 -14.3782
ltibia 37.4517
lfoot -18.4949 -6.94879
ltoes 38.5831
1366
root -7.3872 16.9495 17.1985 -318.328 -84.3254 -50.2779
lowerback 16.6917 1.82269 -3.26186
upperback 4.94876 1.559 -0.738304
thorax -4.13668 0.66335 0.764731
lowerneck -7.44262 4.84906 6.95335
upperneck 4.31887 6.04961 -4.30206
head 3.12093 2.98233 -2.33857
rclavicle 4.77083e-015 3.18055e-015
rhumerus -49.5155 -0.250777 -63.7572
rradius 83.7341
rwrist 9.9814
rhand -13.5331 -22.7537
rfingers 7.12502
rthumb 12.5793 -52.355
lclavicle 4.77083e-015 3.18055e-015
lhumerus -56.9631 -29.0364 106.342
lradius 86.0076
lwrist 14.9674
lhand 17.2312 20.9733
lfingers 7.12502
lthumb 41.9476 45.5809
rfemur -96.0702 -25.0773 55.1406
rtibia 64.0588
rfoot -4.22396 4.5571
rtoes -42.688
lfemur -7.17592 14.8649 -14.9765
ltibia 37.5146
lfoot -18.6319 -7.60724
ltoes 36.8102
1367
root -7.41409 16.9296 17.1656 -335.656 -83.3505 -33.2838
lowerback 17.1837 1.81966 -4.3967
upperback 5.0599 1.31981 -0.945229
thorax -4.28876 0.543592 1.22741
lowerneck -7.61787 4.71516 6.57697
upperneck 4.46484 5.89865 -4.27019
head 3.17697 2.90036 -2.26479
rclavicle 1.98785e-016 -1.11319e-014
rhumerus -50.1265 -0.449077 -63.7779
rradius 85.2433
rwrist 8.77134
rhand -13.4476 -22.8454
rfingers 7.12502
rthumb 12.6617 -52.4416
lclavicle 1.98785e-016 -1.11319e-014
lhumerus -56.6172 -29.9918 106.375
lradius 85.5467
lwrist 14.6479
lhand 17.2549 20.7506
lfingers 7.12502
lthumb 41.9698 45.3508
rfemur -98.6969 -25.3532 56.5278
rtibia 69.6952
rfoot 0.00458153 2.27544
rtoes -40.7419
lfemur -6.85769 14.5464 -15.7152
ltibia 37.4479
lfoot -18.7739 -8.60418
ltoes 35.7816
1368
root -7.43012 16.9243 17.1302 -345.919 -81.9371 -23.333
lowerback 17.6608 1.78306 -5.14691
upperback 5.17865 1.09301 -1.15289
thorax -4.4102 0.429303 1.472
lowerneck -7.60146 4.55861 6.19838
upperneck 4.36563 5.7183 -4.13832
head 3.10633 2.8079 -2.16216
rclavicle 3.97569e-015 -1.27222e-014
rhumerus -50.7865 -0.638342 -63.8761
rradius 86.8228
rwrist 7.07858
rhand -13.4257 -22.9405
rfingers 7.12502
rthumb 12.6828 -52.5353
lclavicle 3.97569e-015 -1.27222e-014
lhumerus -56.1135 -30.7291 106.194
lradius 85.1664
lwrist 14.5398
lhand 17.5737 20.7852
lfingers 7.12502
lthumb 42.2684 45.2846
rfemur -100.501 -25.4406 56.7064
rtibia 75.0416
rfoot 4.44905 1.715
rtoes -39.2841
lfemur -6.56178 14.3578 -16.0767
ltibia 37.3127
lfoot -18.7854 -9.99558
ltoes 35.3262
1369
root -7.46474 16.9089 17.098 -352.197 -80.1851 -17.3534
lowerback 17.9182 1.60235 -5.60874
upperback 5.35314 0.740909 -1.37109
thorax -4.33874 0.248636 1.57462
lowerneck -7.34174 4.40504 5.69352
upperneck 4.08989 5.55597 -3.87746
head 2.92077 2.72852 -1.99649
rclavicle -2.62396e-014 2.8625e-014
rhumerus -51.3027 -0.899073 -64.1164
rradius 88.2725
rwrist 5.29426
rhand -13.0077 -22.9377
rfingers 7.12502
rthumb 13.0857 -52.5072
lclavicle -2.62396e-014 2.8625e-014
lhumerus -55.3941 -31.0612 105.724
lradius 84.807
lwrist 14.2988
lhand 16.9247 20.9558
lfingers 7.12502
lthumb 41.6601 45.6587
rfemur -101.698 -25.6145 56.2158
rtibia 80.0854
rfoot 8.5308 3.26536
rtoes -35.7485
lfemur -6.29266 14.352 -16.1666
ltibia 37.3559
lfoot -18.8468 -11.7978
ltoes 35.0514
1370
root -7.49516 16.904 17.0576 -353.156 -78.2676 -16.5391
lowerback 18.1561 1.52355 -5.49303
upperback 5.42187 0.645186 -1.36701
thorax -4.38347 0.201781 1.53229
lowerneck -7.29067 4.15981 5.61251
upperneck 4.0036 5.23963 -3.92149
head 2.86347 2.56862 -2.01513
rclavicle -1.21259e-014 -1.74931e-014
rhumerus -52.0168 -1.56681 -64.0564
rradius 89.5663
rwrist 3.42216
rhand -12.2404 -22.4943
rfingers 7.12502
rthumb 13.8254 -52.0148
lclavicle -1.21259e-014 -1.74931e-014
lhumerus -54.7851 -31.7616 105.509
lradius 84.4395
lwrist 14.157
lhand 18.4559 21.5176
lfingers 7.12502
lthumb 43.094 45.7302
rfemur -102.25 -25.6139 55.6395
rtibia 84.6003
rfoot 12.4293 6.12708
rtoes -30.1941
lfemur -6.40709 14.7009 -15.4476
ltibia 37.5697
lfoot -18.7017 -14.073
ltoes 35.2289
1371
root -7.5377 16.8879 17.0173 -353.265 -76.2658 -16.4265
lowerback 18.2543 1.40128 -5.2517
upperback 5.41071 0.530876 -1.34757
thorax -4.43851 0.150425 1.44038
lowerneck -7.27366 3.86361 5.35263
upperneck 4.03268 4.85553 -3.6782
head 2.83085 2.38173 -1.90775
rclavicle -3.97569e-016 9.54166e-015
rhumerus -52.6785 -2.1028 -64.1342
rradius 90.7914
rwrist 0.908318
rhand -11.9044 -23.435
rfingers 7.12502
rthumb 14.1491 -52.9332
lclavicle -3.97569e-016 9.54166e-015
lhumerus -54.1391 -32.177 105.23
lradius 84.0794
lwrist 13.9753
lhand 19.9276 22.2978
lfingers 7.12502
lthumb 44.4676 46.004
rfemur -102.619 -25.658 55.044
rtibia 88.7108
rfoot 15.6431 10.867
rtoes -27.6639
lfemur -6.79079 15.1809 -14.5981
ltibia 37.9652
lfoot -18.6563 -16.4042
ltoes 35.0207
